<?xml version="1.0" standalone="no"?>
<!DOCTYPE svg PUBLIC "-//W3C//DTD SVG 20010904//EN"
 "http://www.w3.org/TR/2001/REC-SVG-20010904/DTD/svg10.dtd">
<svg version="1.0" xmlns="http://www.w3.org/2000/svg"
 width="250.000000pt" height="250.000000pt" viewBox="0 0 250.000000 250.000000"
 preserveAspectRatio="xMidYMid meet">
<metadata>
Created by potrace 1.11, written by Peter Selinger 2001-2013
</metadata>
<g transform="translate(0.000000,250.000000) scale(0.100000,-0.100000)"
fill="#000000" stroke="none">
<path d="M1296 2468 c-141 -25 -280 -209 -332 -439 -11 -48 -10 -185 2 -236
35 -150 123 -230 241 -217 70 7 171 78 230 161 126 177 164 454 84 611 -24 48
-92 110 -128 118 -16 3 -32 7 -38 8 -5 1 -32 -1 -59 -6z"/>
<path d="M443 2075 c-222 -112 -278 -542 -96 -730 91 -94 210 -99 309 -12 145
128 194 397 106 590 -50 108 -120 166 -211 174 -47 4 -65 0 -108 -22z"/>
<path d="M2050 2073 c-106 -13 -190 -52 -286 -131 -217 -179 -302 -474 -173
-603 104 -104 318 -56 486 109 184 180 250 416 153 551 -33 48 -116 81 -180
74z"/>
<path d="M905 1240 c-363 -82 -771 -373 -789 -562 -7 -75 78 -190 179 -240 83
-41 238 -84 405 -113 114 -19 141 -35 255 -150 136 -136 178 -160 285 -160
142 0 217 41 258 141 28 68 37 134 37 279 0 148 -8 215 -40 341 -63 248 -157
401 -279 455 -68 31 -199 34 -311 9z"/>
<path d="M2055 1159 c-266 -35 -499 -332 -433 -551 14 -48 82 -113 134 -127
56 -16 132 -13 195 5 299 89 484 438 325 612 -44 49 -132 73 -221 61z"/>
</g>
</svg>
